<svg id="Livello_1" data-name="Livello 1" xmlns="http://www.w3.org/2000/svg" width="98.91" height="77.83" viewBox="0 0 98.91 77.83">
  <defs>
    <style>
      .cls-1 {
        fill: #8e8e93;
      }
    </style>
  </defs>
  <title>Drag Box</title>
  <g>
    <path class="cls-1" d="M13.42,4.29H8.33l-.14,0L8,4.35l-.13,0-.14,0-.13,0-.14,0-.12.06-.13.07-.12.07L7,4.78l-.11.08L6.79,5,6.69,5l-.08.07h0l-.1.1-.09.11-.08.11-.08.11-.08.11-.07.12L6,5.92,6,6.05l0,.13,0,.13,0,.14,0,.14,0,.14,0,.14V12a1,1,0,1,0,1.92,0v-5l0,0v0l0,0,0,0,0,0,0,0,0,0,0,0,0,0,0,0,0,0H8l0,0,0,0,0,0,0,0,0,0,0,0,0,0H8.3l0,0h5.08a1,1,0,1,0,0-1.92Z" transform="translate(-5.74 -4.29)"/>
    <path class="cls-1" d="M36.74,4.29H27a1,1,0,0,0,0,1.92h9.71a1,1,0,1,0,0-1.92Z" transform="translate(-5.74 -4.29)"/>
    <path class="cls-1" d="M13.42,80.19H8.34l0,0H8.25l0,0,0,0,0,0,0,0,0,0,0,0,0,0-.05,0h0l0,0,0,0,0,0,0,0,0,0,0,0,0-.05,0,0v0l0,0v-5a1,1,0,1,0-1.92,0v5.1l0,.14,0,.14,0,.14,0,.14,0,.13,0,.13.06.13.06.13.07.12.08.11.08.11.08.11.09.11.08.08,0,0,0,0,.07.06.1.09.11.09.12.08.11.07.12.07.13.07.12.06.14,0,.13,0,.14,0,.13,0,.15,0,.14,0h5.09a1,1,0,1,0,0-1.92Z" transform="translate(-5.74 -4.29)"/>
    <path class="cls-1" d="M6.7,37.11a1,1,0,0,0,1-1V26.07a1,1,0,0,0-1.92,0V36.15A1,1,0,0,0,6.7,37.11Z" transform="translate(-5.74 -4.29)"/>
    <path class="cls-1" d="M6.7,61.29a1,1,0,0,0,1-1V50.25a1,1,0,1,0-1.92,0V60.33A1,1,0,0,0,6.7,61.29Z" transform="translate(-5.74 -4.29)"/>
    <path class="cls-1" d="M60.06,80.19H50.34a1,1,0,0,0,0,1.92h9.72a1,1,0,0,0,0-1.92Z" transform="translate(-5.74 -4.29)"/>
    <path class="cls-1" d="M36.74,80.19H27a1,1,0,1,0,0,1.92h9.71a1,1,0,1,0,0-1.92Z" transform="translate(-5.74 -4.29)"/>
    <path class="cls-1" d="M103.7,49.29a1,1,0,0,0-1,1V60.33a1,1,0,1,0,1.92,0V50.25A1,1,0,0,0,103.7,49.29Z" transform="translate(-5.74 -4.29)"/>
    <path class="cls-1" d="M60.06,4.29H50.34a1,1,0,0,0,0,1.92h9.72a1,1,0,1,0,0-1.92Z" transform="translate(-5.74 -4.29)"/>
    <path class="cls-1" d="M104.65,7V6.87l0-.14,0-.14,0-.14,0-.14,0-.13,0-.13-.06-.13-.06-.13-.07-.12-.08-.11-.08-.11L104,5.34l-.09-.11-.08-.08h0v0l-.1-.09-.1-.09-.11-.09-.11-.08-.12-.07-.12-.07L103,4.57l-.12-.06-.14,0-.13,0-.14,0-.14,0-.14,0-.14,0H97a1,1,0,1,0,0,1.92h5.08l0,0h.05l0,0,0,0,0,0,0,0,0,0,0,0,0,0,0,0h0l0,0,0,0,0,0,0,0,0,0,0,0,0,0,0,0v0l0,0v5a1,1,0,1,0,1.92,0V7Z" transform="translate(-5.74 -4.29)"/>
    <path class="cls-1" d="M103.7,25.11a1,1,0,0,0-1,1V36.15a1,1,0,1,0,1.92,0V26.07A1,1,0,0,0,103.7,25.11Z" transform="translate(-5.74 -4.29)"/>
    <path class="cls-1" d="M83.37,80.19H73.66a1,1,0,1,0,0,1.92h9.71a1,1,0,1,0,0-1.92Z" transform="translate(-5.74 -4.29)"/>
    <path class="cls-1" d="M103.7,73.47a1,1,0,0,0-1,1v5l0,0v0l0,0,0,.05,0,0,0,0,0,0,0,0,0,0,0,0,0,0h0l0,0,0,0,0,0,0,0,0,0,0,0,0,0h-.05l0,0H97a1,1,0,1,0,0,1.92h5.09l.14,0,.14,0,.14,0,.14,0,.13,0,.14,0,.12-.06.13-.07.12-.07.11-.07.12-.08.11-.09.1-.09.08-.07h0l.09-.1.1-.11.08-.11.08-.11.08-.11.07-.12.06-.13.06-.13,0-.13,0-.13,0-.14,0-.14,0-.14,0-.14v-5.1A1,1,0,0,0,103.7,73.47Z" transform="translate(-5.74 -4.29)"/>
    <path class="cls-1" d="M83.37,4.29H73.66a1,1,0,1,0,0,1.92h9.71a1,1,0,0,0,0-1.92Z" transform="translate(-5.74 -4.29)"/>
  </g>
</svg>
