<?xml version="1.0" encoding="utf-8"?>
<!-- Generator: Adobe Illustrator 23.0.1, SVG Export Plug-In . SVG Version: 6.00 Build 0)  -->
<svg version="1.1" id="Livello_1" xmlns="http://www.w3.org/2000/svg" xmlns:xlink="http://www.w3.org/1999/xlink" x="0px" y="0px"
	 viewBox="0 0 96 96" style="enable-background:new 0 0 96 96;" xml:space="preserve">
<style type="text/css">
	.st0{fill:url(#SVGID_1_);}
	.st1{fill:none;stroke:url(#SVGID_2_);stroke-miterlimit:10;}
	.st2{fill:#FFFFFF;}
</style>
<g>
	
		<image style="overflow:visible;opacity:0.25;enable-background:new    ;" width="458" height="458" xlink:href="64655421332E6A90.png"  transform="matrix(0.2369 0 0 0.2369 -6.24 -4.2)">
	</image>
	<g>
		
			<linearGradient id="SVGID_1_" gradientUnits="userSpaceOnUse" x1="48" y1="3.35" x2="48" y2="92.65" gradientTransform="matrix(1 0 0 -1 0 96)">
			<stop  offset="0" style="stop-color:#008D36"/>
			<stop  offset="1" style="stop-color:#26A737"/>
		</linearGradient>
		<circle class="st0" cx="48" cy="48" r="44.7"/>
		
			<linearGradient id="SVGID_2_" gradientUnits="userSpaceOnUse" x1="48" y1="2.85" x2="48" y2="93.15" gradientTransform="matrix(1 0 0 -1 0 96)">
			<stop  offset="0" style="stop-color:#07652E"/>
			<stop  offset="0.2844" style="stop-color:#0A662E"/>
			<stop  offset="0.3868" style="stop-color:#146B30"/>
			<stop  offset="0.4598" style="stop-color:#207432"/>
			<stop  offset="0.5188" style="stop-color:#308134"/>
			<stop  offset="0.5688" style="stop-color:#459337"/>
			<stop  offset="0.5855" style="stop-color:#4E9B38"/>
			<stop  offset="0.6999" style="stop-color:#519F38"/>
			<stop  offset="0.9851" style="stop-color:#57A939"/>
		</linearGradient>
		<circle class="st1" cx="48" cy="48" r="44.7"/>
	</g>
</g>
<g id="Bold-L" transform="matrix(1 0 0 1 2266.93 1556)">
	<path class="st2" d="M-2224.2-1485.5c1.6,0,2.7-0.6,3.6-1.8l24.1-37c0.6-0.9,0.9-1.8,0.9-2.6c0-2.1-1.6-3.6-3.7-3.6
		c-1.5,0-2.4,0.5-3.3,1.9l-21.6,34l-11-13.6c-0.8-1-1.8-1.5-3-1.5c-2.2,0-3.8,1.6-3.8,3.7c0,0.9,0.3,1.8,1.1,2.7l13.2,16.1
		C-2226.8-1486-2225.7-1485.5-2224.2-1485.5z"/>
</g>
</svg>
